{"asset":{"version":"2.0","generator":"Blockbench 4.8.3 glTF exporter"},"scenes":[{"nodes":[12],"name":"blockbench_export"}],"scene":0,"nodes":[{"name":"cylinder","mesh":0},{"name":"wheels_left","children":[0]},{"name":"cylinder","mesh":1},{"translation":[-0.9393382352941166,0,0],"name":"wheels_right","children":[2]},{"name":"cylinder","mesh":2},{"translation":[-0.9393382352941166,0,-1.0625],"name":"wheels_right_rear","children":[4]},{"name":"cylinder","mesh":3},{"translation":[0,0,-1.0625],"name":"wheels_left_rear","children":[6]},{"translation":[0,0,0.5625],"name":"mirror_right","mesh":4},{"translation":[0,0,0.5625],"name":"mirror_left","mesh":5},{"translation":[-0.4696691176470583,-0.21875000000000028,-0.234375],"name":"body","mesh":6},{"translation":[0.4696691176470583,0.21875000000000028,0.234375],"name":"root","children":[1,3,5,7,8,9,10]},{"children":[11]}],"bufferViews":[{"buffer":0,"byteOffset":0,"byteLength":1728,"target":34962,"byteStride":12},{"buffer":0,"byteOffset":1728,"byteLength":1728,"target":34962,"byteStride":12},{"buffer":0,"byteOffset":3456,"byteLength":1152,"target":34962,"byteStride":8},{"buffer":0,"byteOffset":4608,"byteLength":384,"target":34963},{"buffer":0,"byteOffset":4992,"byteLength":1728,"target":34962,"byteStride":12},{"buffer":0,"byteOffset":6720,"byteLength":1728,"target":34962,"byteStride":12},{"buffer":0,"byteOffset":8448,"byteLength":1152,"target":34962,"byteStride":8},{"buffer":0,"byteOffset":9600,"byteLength":384,"target":34963},{"buffer":0,"byteOffset":9984,"byteLength":1728,"target":34962,"byteStride":12},{"buffer":0,"byteOffset":11712,"byteLength":1728,"target":34962,"byteStride":12},{"buffer":0,"byteOffset":13440,"byteLength":1152,"target":34962,"byteStride":8},{"buffer":0,"byteOffset":14592,"byteLength":384,"target":34963},{"buffer":0,"byteOffset":14976,"byteLength":1728,"target":34962,"byteStride":12},{"buffer":0,"byteOffset":16704,"byteLength":1728,"target":34962,"byteStride":12},{"buffer":0,"byteOffset":18432,"byteLength":1152,"target":34962,"byteStride":8},{"buffer":0,"byteOffset":19584,"byteLength":384,"target":34963},{"buffer":0,"byteOffset":19968,"byteLength":672,"target":34962,"byteStride":12},{"buffer":0,"byteOffset":20640,"byteLength":672,"target":34962,"byteStride":12},{"buffer":0,"byteOffset":21312,"byteLength":448,"target":34962,"byteStride":8},{"buffer":0,"byteOffset":21760,"byteLength":168,"target":34963},{"buffer":0,"byteOffset":21928,"byteLength":672,"target":34962,"byteStride":12},{"buffer":0,"byteOffset":22600,"byteLength":672,"target":34962,"byteStride":12},{"buffer":0,"byteOffset":23272,"byteLength":448,"target":34962,"byteStride":8},{"buffer":0,"byteOffset":23720,"byteLength":168,"target":34963},{"buffer":0,"byteOffset":23888,"byteLength":3984,"target":34962,"byteStride":12},{"buffer":0,"byteOffset":27872,"byteLength":3984,"target":34962,"byteStride":12},{"buffer":0,"byteOffset":31856,"byteLength":2656,"target":34962,"byteStride":8},{"buffer":0,"byteOffset":34512,"byteLength":996,"target":34963}],"buffers":[{"byteLength":35508,"uri":"data:application/octet-stream;base64,"}],"accessors":[{"bufferView":0,"componentType":5126,"count":144,"max":[0.07720588147640228,0.171875,0.2056249976158142],"min":[-0.14154411852359772,-0.171875,-0.2056249976158142],"type":"VEC3"},{"bufferView":1,"componentType":5126,"count":144,"max":[1,1,1],"min":[-1,-1,-1],"type":"VEC3"},{"bufferView":2,"componentType":5126,"count":144,"max":[0.484375,0.515625],"min":[0,0],"type":"VEC2"},{"bufferView":3,"componentType":5123,"count":192,"max":[143],"min":[0],"type":"SCALAR"},{"bufferView":4,"componentType":5126,"count":144,"max":[0.14154411852359772,0.171875,0.2056249976158142],"min":[-0.07720588147640228,-0.171875,-0.2056249976158142],"type":"VEC3"},{"bufferView":5,"componentType":5126,"count":144,"max":[1,1,1],"min":[-1,-1,-1],"type":"VEC3"},{"bufferView":6,"componentType":5126,"count":144,"max":[0.5390625,0.5234375],"min":[0,0.0703125],"type":"VEC2"},{"bufferView":7,"componentType":5123,"count":192,"max":[143],"min":[0],"type":"SCALAR"},{"bufferView":8,"componentType":5126,"count":144,"max":[0.14154411852359772,0.171875,0.2056249976158142],"min":[-0.07720588147640228,-0.171875,-0.2056249976158142],"type":"VEC3"},{"bufferView":9,"componentType":5126,"count":144,"max":[1,1,1],"min":[-1,-1,-1],"type":"VEC3"},{"bufferView":10,"componentType":5126,"count":144,"max":[0.5546875,0.5390625],"min":[0,0],"type":"VEC2"},{"bufferView":11,"componentType":5123,"count":192,"max":[143],"min":[0],"type":"SCALAR"},{"bufferView":12,"componentType":5126,"count":144,"max":[0.07720588147640228,0.171875,0.2056249976158142],"min":[-0.14154411852359772,-0.171875,-0.2056249976158142],"type":"VEC3"},{"bufferView":13,"componentType":5126,"count":144,"max":[1,1,1],"min":[-1,-1,-1],"type":"VEC3"},{"bufferView":14,"componentType":5126,"count":144,"max":[0.546875,0.546875],"min":[0.0390625,0.03125],"type":"VEC2"},{"bufferView":15,"componentType":5123,"count":192,"max":[143],"min":[0],"type":"SCALAR"},{"bufferView":16,"componentType":5126,"count":56,"max":[-0.953125,0.625,-0.6875],"min":[-1.203125,0.5,-0.78125],"type":"VEC3"},{"bufferView":17,"componentType":5126,"count":56,"max":[1,1,0.991227924823761],"min":[-0.8320503234863281,-1,-1],"type":"VEC3"},{"bufferView":18,"componentType":5126,"count":56,"max":[0.5390625,0.546875],"min":[0,0.0859375],"type":"VEC2"},{"bufferView":19,"componentType":5123,"count":84,"max":[55],"min":[0],"type":"SCALAR"},{"bufferView":20,"componentType":5126,"count":56,"max":[0.265625,0.625,-0.6875],"min":[0.015625,0.5,-0.78125],"type":"VEC3"},{"bufferView":21,"componentType":5126,"count":56,"max":[0.8320503234863281,1,0.991227924823761],"min":[-1,-1,-1],"type":"VEC3"},{"bufferView":22,"componentType":5126,"count":56,"max":[0.44361424446105957,0.546875],"min":[0,0.0859375],"type":"VEC2"},{"bufferView":23,"componentType":5123,"count":84,"max":[55],"min":[0],"type":"SCALAR"},{"bufferView":24,"componentType":5126,"count":332,"max":[0.5,1.125,0.6856098771095276],"min":[-0.5,0.1875,-1.40625],"type":"VEC3"},{"bufferView":25,"componentType":5126,"count":332,"max":[1,1,1],"min":[-1,-1,-1],"type":"VEC3"},{"bufferView":26,"componentType":5126,"count":332,"max":[0.5234375,0.5703125],"min":[0,0],"type":"VEC2"},{"bufferView":27,"componentType":5123,"count":498,"max":[331],"min":[0],"type":"SCALAR"}],"materials":[{"pbrMetallicRoughness":{"metallicFactor":0,"roughnessFactor":1,"baseColorTexture":{"index":0}},"alphaMode":"MASK","alphaCutoff":0.05,"doubleSided":true}],"textures":[{"sampler":0,"source":0,"name":"truck.png"}],"samplers":[{"magFilter":9728,"minFilter":9728,"wrapS":33071,"wrapT":33071}],"images":[{"mimeType":"image/png","uri":"data:image/png;base64,"}],"meshes":[{"primitives":[{"mode":4,"attributes":{"POSITION":0,"NORMAL":1,"TEXCOORD_0":2},"indices":3,"material":0}]},{"primitives":[{"mode":4,"attributes":{"POSITION":4,"NORMAL":5,"TEXCOORD_0":6},"indices":7,"material":0}]},{"primitives":[{"mode":4,"attributes":{"POSITION":8,"NORMAL":9,"TEXCOORD_0":10},"indices":11,"material":0}]},{"primitives":[{"mode":4,"attributes":{"POSITION":12,"NORMAL":13,"TEXCOORD_0":14},"indices":15,"material":0}]},{"primitives":[{"mode":4,"attributes":{"POSITION":16,"NORMAL":17,"TEXCOORD_0":18},"indices":19,"material":0}]},{"primitives":[{"mode":4,"attributes":{"POSITION":20,"NORMAL":21,"TEXCOORD_0":22},"indices":23,"material":0}]},{"primitives":[{"mode":4,"attributes":{"POSITION":24,"NORMAL":25,"TEXCOORD_0":26},"indices":27,"material":0}]}]}